<svg xmlns="http://www.w3.org/2000/svg" version="1.1" xmlns:xlink="http://www.w3.org/1999/xlink" xmlns:svgjs="http://svgjs.dev/svgjs" width="1500" height="1500" viewBox="0 0 1500 1500"><rect width="1500" height="1500" fill="transparent"></rect><g transform="matrix(0.6666666666666666,0,0,0.6666666666666666,249.39422376063106,585.4296390267641)"><svg viewBox="0 0 396 130" data-background-color="#ed1703" preserveAspectRatio="xMidYMid meet" height="492" width="1500" xmlns="http://www.w3.org/2000/svg" xmlns:xlink="http://www.w3.org/1999/xlink"><g id="tight-bounds" transform="matrix(1,0,0,1,0.23988739079010202,0.22605770280691218)"><svg viewBox="0 0 395.52 129.54765937596636" height="129.54765937596636" width="395.52"><g><svg viewBox="0 0 676.177745042052 221.47361496843848" height="129.54765937596636" width="395.52"><g transform="matrix(1,0,0,1,0,48.061937872723774)"><svg viewBox="0 0 395.52 125.34973922299093" height="125.34973922299093" width="395.52"><g id="textblocktransform"><svg viewBox="0 0 395.52 125.34973922299093" height="125.34973922299093" width="395.52" id="textblock"><g><svg viewBox="0 0 395.52 125.34973922299093" height="125.34973922299093" width="395.52"><g transform="matrix(1,0,0,1,0,0)"><svg width="395.52" viewBox="4.8 -41.5 197.68 59.55" height="125.34973922299093" data-palette-color="#ffffff"><g class="wordmark-text-0" data-fill-palette-color="primary" id="text-0"><path d="M4.8-0.85L4.8-0.85Q4.8-2.6 5.15-4.98 5.5-7.35 6.18-10.05 6.85-12.75 7.78-15.7 8.7-18.65 9.85-21.6L9.85-21.6Q10.85-24.25 12.18-26.95 13.5-29.65 15.05-32.25 16.6-34.85 18.28-37.2 19.95-39.55 21.65-41.5L21.65-41.5Q22.45-41.5 23.38-41.3 24.3-41.1 25.18-40.78 26.05-40.45 26.78-40 27.5-39.55 27.95-39.1L27.95-39.1Q24.2-35.25 21.2-31.33 18.2-27.4 16.45-23.95L16.45-23.95Q15.5-22.05 14.73-20.4 13.95-18.75 13.3-17.13 12.65-15.5 12.13-13.88 11.6-12.25 11.15-10.45L11.15-10.45Q20.75-22.7 25.4-22.7L25.4-22.7Q26.7-22.7 28.2-21.85 29.7-21 30.85-19.55L30.85-19.55Q29.3-17.85 27.65-15.45 26-13.05 24.63-10.63 23.25-8.2 22.38-6.13 21.5-4.05 21.5-3.05L21.5-3.05Q21.5-2.55 21.65-2.38 21.8-2.2 22.3-2.2L22.3-2.2Q23.05-2.2 23.5-2.4 23.95-2.6 24.05-2.6L24.05-2.6Q24.3-2.2 24.35-2.05 24.4-1.9 24.4-1.8L24.4-1.8Q24.4-1.6 23.8-1.23 23.2-0.85 22.38-0.48 21.55-0.1 20.75 0.2 19.95 0.5 19.55 0.5L19.55 0.5Q19.05 0.5 18.55 0.23 18.05-0.05 17.68-0.5 17.3-0.95 17.07-1.5 16.85-2.05 16.85-2.65L16.85-2.65Q16.85-3.4 17.28-4.88 17.7-6.35 18.45-8.33 19.2-10.3 20.25-12.65 21.3-15 22.5-17.45L22.5-17.45Q22.5-17.65 22.3-17.65L22.3-17.65Q22.15-17.65 21.53-17.25 20.9-16.85 20.35-16.45L20.35-16.45Q18.55-15.1 16.73-13.13 14.9-11.15 13.18-8.8 11.45-6.45 9.93-3.83 8.4-1.2 7.3 1.45L7.3 1.45Q7.15 1.8 6.85 2.1 6.55 2.4 6.35 2.4L6.35 2.4Q6.2 2.4 5.93 2.05 5.65 1.7 5.43 1.18 5.2 0.65 5 0.1 4.8-0.45 4.8-0.85ZM47.95-20.2L47.95-20.2Q48.45-20.2 49.12-20.03 49.8-19.85 50.35-19.58 50.9-19.3 51.27-19 51.65-18.7 51.65-18.45L51.65-18.45Q50.65-16.35 49.8-14.23 48.95-12.1 48.35-10.15 47.75-8.2 47.42-6.5 47.1-4.8 47.1-3.55L47.1-3.55Q47.1-2.15 47.4-1.23 47.7-0.3 48.4 0.1L48.4 0.1Q47.8 0.5 46.85 0.75 45.9 1 45.15 1L45.15 1Q42.45 1 42.45-2.7L42.45-2.7Q42.45-5.55 44.35-10.5L44.35-10.5Q43.35-8.2 42.05-6.18 40.75-4.15 39.4-2.6 38.05-1.05 36.67-0.08 35.3 0.9 34.15 1.1L34.15 1.1Q32.3 1 31.15-0.68 30-2.35 30-4.95L30-4.95Q30-7.75 31.2-10.85 32.4-13.95 34.27-16.6 36.15-19.25 38.35-21.03 40.55-22.8 42.6-22.9L42.6-22.9Q43.1-22.75 43.72-22.3 44.35-21.85 44.92-21.25 45.5-20.65 45.9-20.03 46.3-19.4 46.35-18.95L46.35-18.95Q44.35-18.65 42.22-17 40.1-15.35 38.37-13.03 36.65-10.7 35.55-8.05 34.45-5.4 34.45-3.1L34.45-3.1Q34.45-2.15 35.15-1.9L35.15-1.9Q36.6-2.2 38.5-4.38 40.4-6.55 43.1-11.1L43.1-11.1Q43.6-12 44.22-13.1 44.85-14.2 45.5-15.4 46.15-16.6 46.77-17.82 47.4-19.05 47.95-20.2ZM52.99-1L52.99-1Q53.24-2.45 53.87-4.83 54.49-7.2 55.34-9.88 56.2-12.55 57.14-15.25 58.09-17.95 58.99-20.1L58.99-20.1Q59.64-21.65 60.14-22.53 60.64-23.4 61.24-24L61.24-24Q61.95-23.9 62.7-23.65 63.45-23.4 64.14-23.05 64.84-22.7 65.39-22.33 65.94-21.95 66.25-21.6L66.25-21.6Q64.89-20 63.87-17.95 62.84-15.9 61.8-12.7L61.8-12.7Q64.5-15.1 66.57-17.3 68.64-19.5 70.44-22.2L70.44-22.2Q70.75-22.45 71.5-22.45L71.5-22.45Q72.19-22.45 72.84-22.23 73.5-22 73.75-21.6L73.75-21.6Q72.84-19.2 72.84-16.85L72.84-16.85Q72.84-14.65 73.5-13.55L73.5-13.55Q73.44-13.25 72.82-12.4 72.19-11.55 71.44-10.8L71.44-10.8Q70.09-11.5 69.05-12.73 68-13.95 67.5-15.4L67.5-15.4Q65.14-13.75 63.49-12.18 61.84-10.6 60.67-8.68 59.49-6.75 58.67-4.25 57.84-1.75 57.09 1.7L57.09 1.7Q56.64 1.65 56.02 1.38 55.39 1.1 54.77 0.7 54.14 0.3 53.64-0.15 53.14-0.6 52.99-1ZM74.39-3.35L74.39-3.35Q74.39-3.8 74.47-4.48 74.54-5.15 74.74-6.28 74.94-7.4 75.27-9 75.59-10.6 76.09-12.85L76.09-12.85Q76.19-13.35 76.54-14.45 76.89-15.55 77.47-16.78 78.04-18 78.87-19.15 79.69-20.3 80.84-20.85L80.84-20.85Q81.69-20.65 83.09-19.83 84.49-19 85.49-17.55L85.49-17.55Q84.34-16.25 83.57-14.95 82.79-13.65 82.17-12.25 81.54-10.85 81.02-9.35 80.49-7.85 79.84-6.2L79.84-6.2Q79.29-4.8 78.84-3.33 78.39-1.85 78.34-0.75L78.34-0.75Q78.34 0.15 78.32 0.53 78.29 0.9 78.04 0.9L78.04 0.9Q77.84 0.9 77.24 0.65 76.64 0.4 76.02-0.13 75.39-0.65 74.89-1.45 74.39-2.25 74.39-3.35ZM83.94-25.05L83.94-25.05Q83.94-25.35 84.09-25.95L84.09-25.95Q83.84-26.2 83.67-26.7 83.49-27.2 83.49-27.6L83.49-27.6Q83.49-28.05 83.62-28.83 83.74-29.6 83.94-30.5 84.14-31.4 84.44-32.38 84.74-33.35 85.04-34.15L85.04-34.15Q85.64-34.15 86.52-33.83 87.39-33.5 88.29-32.98 89.19-32.45 89.94-31.83 90.69-31.2 91.09-30.65L91.09-30.65Q90.54-30.1 89.64-29.13 88.74-28.15 87.89-27.08 87.04-26 86.34-25.05 85.64-24.1 85.44-23.7L85.44-23.7Q84.84-23.8 84.39-24.23 83.94-24.65 83.94-25.05Z" fill="#ffffff" data-fill-palette-color="primary"></path><path d="M125.09-19.9L125.09-19.9Q125.04-18.95 124.76-17.93 124.49-16.9 124.09-16.07 123.69-15.25 123.24-14.7 122.79-14.15 122.39-14.15L122.39-14.15Q121.84-14.2 121.74-14.9L121.74-14.9Q121.74-15.05 121.86-15.38 121.99-15.7 122.14-16.1 122.29-16.5 122.41-16.9 122.54-17.3 122.54-17.6L122.54-17.6Q122.54-18.3 122.21-18.78 121.89-19.25 121.34-19.25L121.34-19.25Q119.34-19.25 118.29-16.75 117.24-14.25 117.24-9.4L117.24-9.4Q117.24-8.9 117.29-8.8L117.29-8.8Q118.34-8.85 119.16-8.88 119.99-8.9 120.79-8.9L120.79-8.9Q120.84-8.8 120.84-8.5L120.84-8.5Q120.84-8.05 120.64-7.85L120.64-7.85Q119.49-7.6 118.81-7.43 118.14-7.25 117.79-7.1 117.44-6.95 117.36-6.78 117.29-6.6 117.29-6.3L117.29-6.3Q117.29-5.9 117.31-5.5 117.34-5.1 117.34-4.5L117.34-4.5Q117.34-0.3 115.06 2.25 112.79 4.8 108.74 5.2L108.74 5.2Q108.04 5.15 107.29 4.8 106.54 4.45 105.86 3.9 105.19 3.35 104.69 2.68 104.19 2 103.99 1.3L103.99 1.3Q103.99-0.6 104.79-2.33 105.59-4.05 106.96-5.38 108.34-6.7 110.21-7.53 112.09-8.35 114.29-8.5L114.29-8.5Q114.29-9.75 114.04-10.95 113.79-12.15 113.51-13.28 113.24-14.4 112.99-15.48 112.74-16.55 112.74-17.6L112.74-17.6Q112.74-18.95 113.29-20.28 113.84-21.6 114.74-22.73 115.64-23.85 116.84-24.65 118.04-25.45 119.34-25.75L119.34-25.75Q119.89-25.6 120.81-24.88 121.74-24.15 122.64-23.25 123.54-22.35 124.24-21.43 124.94-20.5 125.09-19.9ZM108.59 2.9L108.59 2.9Q109.79 2.4 110.86 1.45 111.94 0.5 112.74-0.7 113.54-1.9 114.01-3.25 114.49-4.6 114.49-5.9L114.49-5.9Q113.49-5.75 112.29-4.98 111.09-4.2 110.04-3.13 108.99-2.05 108.29-0.9 107.59 0.25 107.59 1.1L107.59 1.1Q107.59 2.2 108.59 2.9ZM123.93-1L123.93-1Q124.18-2.45 124.81-4.83 125.43-7.2 126.29-9.88 127.14-12.55 128.09-15.25 129.04-17.95 129.93-20.1L129.93-20.1Q130.59-21.65 131.09-22.53 131.59-23.4 132.18-24L132.18-24Q132.89-23.9 133.64-23.65 134.39-23.4 135.09-23.05 135.79-22.7 136.34-22.33 136.89-21.95 137.18-21.6L137.18-21.6Q135.84-20 134.81-17.95 133.79-15.9 132.74-12.7L132.74-12.7Q135.43-15.1 137.51-17.3 139.59-19.5 141.39-22.2L141.39-22.2Q141.68-22.45 142.43-22.45L142.43-22.45Q143.14-22.45 143.79-22.23 144.43-22 144.68-21.6L144.68-21.6Q143.79-19.2 143.79-16.85L143.79-16.85Q143.79-14.65 144.43-13.55L144.43-13.55Q144.39-13.25 143.76-12.4 143.14-11.55 142.39-10.8L142.39-10.8Q141.04-11.5 139.99-12.73 138.93-13.95 138.43-15.4L138.43-15.4Q136.09-13.75 134.43-12.18 132.79-10.6 131.61-8.68 130.43-6.75 129.61-4.25 128.79-1.75 128.04 1.7L128.04 1.7Q127.59 1.65 126.96 1.38 126.34 1.1 125.71 0.7 125.09 0.3 124.58-0.15 124.08-0.6 123.93-1ZM145.33-3.35L145.33-3.35Q145.33-3.8 145.41-4.48 145.48-5.15 145.68-6.28 145.88-7.4 146.21-9 146.53-10.6 147.03-12.85L147.03-12.85Q147.13-13.35 147.48-14.45 147.83-15.55 148.41-16.78 148.98-18 149.81-19.15 150.63-20.3 151.78-20.85L151.78-20.85Q152.63-20.65 154.03-19.83 155.43-19 156.43-17.55L156.43-17.55Q155.28-16.25 154.51-14.95 153.73-13.65 153.11-12.25 152.48-10.85 151.96-9.35 151.43-7.85 150.78-6.2L150.78-6.2Q150.23-4.8 149.78-3.33 149.33-1.85 149.28-0.75L149.28-0.75Q149.28 0.15 149.26 0.53 149.23 0.9 148.98 0.9L148.98 0.9Q148.78 0.9 148.18 0.65 147.58 0.4 146.96-0.13 146.33-0.65 145.83-1.45 145.33-2.25 145.33-3.35ZM154.88-25.05L154.88-25.05Q154.88-25.35 155.03-25.95L155.03-25.95Q154.78-26.2 154.61-26.7 154.43-27.2 154.43-27.6L154.43-27.6Q154.43-28.05 154.56-28.83 154.68-29.6 154.88-30.5 155.08-31.4 155.38-32.38 155.68-33.35 155.98-34.15L155.98-34.15Q156.58-34.15 157.46-33.83 158.33-33.5 159.23-32.98 160.13-32.45 160.88-31.83 161.63-31.2 162.03-30.65L162.03-30.65Q161.48-30.1 160.58-29.13 159.68-28.15 158.83-27.08 157.98-26 157.28-25.05 156.58-24.1 156.38-23.7L156.38-23.7Q155.78-23.8 155.33-24.23 154.88-24.65 154.88-25.05ZM175.88-7.75L175.88-7.75Q174.73-4.1 173.58-1.1 172.43 1.9 171.13 4.42 169.83 6.95 168.33 9.08 166.83 11.2 165.03 13.1L165.03 13.1Q162.73 15.5 160.28 16.78 157.83 18.05 155.38 18.05L155.38 18.05Q154.13 18.05 152.9 17.78 151.68 17.5 150.61 17.03 149.53 16.55 148.71 15.93 147.88 15.3 147.53 14.6L147.53 14.6Q147.53 14 148.23 13.55L148.23 13.55Q148.83 14.1 149.23 14.4 149.63 14.7 150 14.9 150.38 15.1 150.81 15.15 151.23 15.2 151.78 15.2L151.78 15.2Q154.63 15.2 157.36 13.53 160.08 11.85 162.51 8.78 164.93 5.7 166.93 1.33 168.93-3.05 170.33-8.45L170.33-8.45Q169.68-7.45 168.73-6 167.78-4.55 166.63-3.13 165.48-1.7 164.26-0.55 163.03 0.6 161.88 1L161.88 1Q161.08 0.95 160.2 0.68 159.33 0.4 158.56-0.1 157.78-0.6 157.18-1.3 156.58-2 156.38-2.9L156.38-2.9Q156.38-4.35 156.48-5.23 156.58-6.1 156.83-7.15L156.83-7.15Q157.28-9.05 158.15-11.45 159.03-13.85 160.2-16.18 161.38-18.5 162.81-20.53 164.23-22.55 165.78-23.7L165.78-23.7Q166.18-23.7 166.78-23.63 167.38-23.55 168.03-23.35 168.68-23.15 169.28-22.88 169.88-22.6 170.33-22.15L170.33-22.15Q169.78-21.65 167.93-18.8 166.08-15.95 163.83-10.6L163.83-10.6Q163.58-10.05 163.23-9 162.88-7.95 162.56-6.8 162.23-5.65 161.98-4.55 161.73-3.45 161.73-2.8L161.73-2.8Q161.73-2.4 161.86-2.2 161.98-2 162.08-1.9L162.08-1.9Q162.98-2.05 164.48-3.38 165.98-4.7 167.88-7.5L167.88-7.5Q169.08-9.3 170.08-11.08 171.08-12.85 172.06-14.65 173.03-16.45 174.08-18.35 175.13-20.25 176.33-22.25L176.33-22.25Q176.98-22.25 177.73-22.1 178.48-21.95 179.18-21.73 179.88-21.5 180.4-21.23 180.93-20.95 181.18-20.65L181.18-20.65Q179.63-17.35 178.28-14.2 176.93-11.05 175.88-7.75ZM198.78-20.2L198.78-20.2Q199.28-20.2 199.95-20.03 200.63-19.85 201.18-19.58 201.73-19.3 202.1-19 202.48-18.7 202.48-18.45L202.48-18.45Q201.48-16.35 200.63-14.23 199.78-12.1 199.18-10.15 198.58-8.2 198.25-6.5 197.93-4.8 197.93-3.55L197.93-3.55Q197.93-2.15 198.23-1.23 198.53-0.3 199.23 0.1L199.23 0.1Q198.63 0.5 197.68 0.75 196.73 1 195.98 1L195.98 1Q193.28 1 193.28-2.7L193.28-2.7Q193.28-5.55 195.18-10.5L195.18-10.5Q194.18-8.2 192.88-6.18 191.58-4.15 190.23-2.6 188.88-1.05 187.5-0.08 186.13 0.9 184.98 1.1L184.98 1.1Q183.13 1 181.98-0.68 180.83-2.35 180.83-4.95L180.83-4.95Q180.83-7.75 182.03-10.85 183.23-13.95 185.1-16.6 186.98-19.25 189.18-21.03 191.38-22.8 193.43-22.9L193.43-22.9Q193.93-22.75 194.55-22.3 195.18-21.85 195.75-21.25 196.33-20.65 196.73-20.03 197.13-19.4 197.18-18.95L197.18-18.95Q195.18-18.65 193.05-17 190.93-15.35 189.2-13.03 187.48-10.7 186.38-8.05 185.28-5.4 185.28-3.1L185.28-3.1Q185.28-2.15 185.98-1.9L185.98-1.9Q187.43-2.2 189.33-4.38 191.23-6.55 193.93-11.1L193.93-11.1Q194.43-12 195.05-13.1 195.68-14.2 196.33-15.4 196.98-16.6 197.6-17.82 198.23-19.05 198.78-20.2Z" fill="#ffffff" data-fill-palette-color="primary"></path></g></svg></g></svg></g></svg></g></svg></g><g transform="matrix(1,0,0,1,454.7041300736136,0)"><svg viewBox="0 0 221.47361496843848 221.47361496843848" height="221.47361496843848" width="221.47361496843848"><g><svg></svg></g><g id="icon-0"><svg viewBox="0 0 221.47361496843848 221.47361496843848" height="221.47361496843848" width="221.47361496843848"><g><path d="M0 110.737c0-61.158 49.579-110.737 110.737-110.737 61.158 0 110.737 49.579 110.737 110.737 0 61.158-49.579 110.737-110.737 110.737-61.158 0-110.737-49.579-110.737-110.737zM110.737 210.169c54.915 0 99.433-44.518 99.432-99.432 0-54.915-44.518-99.433-99.432-99.433-54.915 0-99.433 44.518-99.433 99.433 0 54.915 44.518 99.433 99.433 99.432z" data-fill-palette-color="accent" fill="#ffffff" stroke="transparent"></path></g><g transform="matrix(1,0,0,1,52.029721097243836,52.029721097243836)"><svg viewBox="0 0 117.41417277395081 117.41417277395081" height="117.41417277395081" width="117.41417277395081"><g><svg xmlns="http://www.w3.org/2000/svg" xmlns:xlink="http://www.w3.org/1999/xlink" version="1.1" x="0" y="0" viewBox="5 5 90 90" enable-background="new 0 0 100 100" xml:space="preserve" height="117.41417277395081" width="117.41417277395081" class="icon-cg-0" data-fill-palette-color="accent" id="cg-0"><g fill="#ffffff" data-fill-palette-color="accent"><path d="M18.581 95h62.839C88.908 95 95 88.908 95 81.419V36c0-7.489-6.092-13.581-13.581-13.581H63.972v-3.448C63.972 11.268 57.704 5 50 5s-13.972 6.268-13.972 13.972v3.448H18.581C11.092 22.419 5 28.512 5 36v45.419C5 88.908 11.092 95 18.581 95zM38.931 18.972c0-6.103 4.965-11.069 11.069-11.069s11.069 4.965 11.069 11.069v3.448H38.931V18.972zM7.903 36c0-5.888 4.79-10.678 10.677-10.678H37.48h25.04 18.899c5.888 0 10.677 4.79 10.677 10.678v45.419c0 5.888-4.79 10.678-10.677 10.678H18.581c-5.888 0-10.677-4.79-10.677-10.678V36z" fill="#ffffff" data-fill-palette-color="accent"></path></g></svg></g></svg></g></svg></g></svg></g></svg></g><defs></defs></svg><rect width="395.52" height="129.54765937596636" fill="none" stroke="none" visibility="hidden"></rect></g></svg></g></svg>